<svg width="224" height="224" viewBox="0 0 224 224" fill="none" xmlns="http://www.w3.org/2000/svg">
<path d="M89.4687 217.677C81.0281 215.349 11.9298 196.369 3.38189 142.473C-1.73253 110.243 15.7566 71.1013 39.8266 63.6883C54.3115 59.2119 63.2886 68.6303 77.2012 61.3248C93.5817 52.6943 90.8635 34.5021 103.667 23.2215C121.657 7.32127 157.887 12.9795 178.524 25.7999C228.917 57.1349 239.968 165.214 187.537 206.683C151.95 234.831 101.45 220.972 89.4687 217.677Z" fill="#CFDFFF"/>
<path d="M31.707 105.588L81.5279 66.6607L112.25 39.0502L192.793 105.588L166.184 127.361" fill="white"/>
<path d="M192.793 106.125V198.447C192.793 201.92 190.004 204.714 186.534 204.714H37.9659C34.4967 204.714 31.707 201.92 31.707 198.447V105.588" fill="white"/>
<path d="M186.535 205.251H37.9663C34.2109 205.251 31.1709 202.207 31.1709 198.447V105.588C31.1709 105.301 31.4213 105.051 31.7074 105.051C31.9935 105.051 32.2439 105.301 32.2439 105.588V198.447C32.2439 201.598 34.8189 204.176 37.9663 204.176H186.535C189.682 204.176 192.257 201.598 192.257 198.447V106.125C192.257 105.838 192.508 105.588 192.794 105.588C193.08 105.588 193.33 105.838 193.33 106.125V198.447C193.33 202.207 190.254 205.251 186.535 205.251Z" fill="#212121"/>
<path d="M146.979 68.2365C146.871 68.2365 146.728 68.2006 146.657 68.129L141.328 63.7959C141.113 63.6168 141.077 63.2587 141.256 63.0438C141.435 62.8289 141.793 62.7931 142.007 62.9722L147.3 67.3054C147.515 67.4844 147.551 67.8425 147.372 68.0574C147.265 68.1648 147.122 68.2365 146.979 68.2365Z" fill="#212121"/>
<path d="M88.395 60.9309C88.2519 60.9309 88.1089 60.8593 88.0016 60.7519C87.787 60.537 87.8228 60.1789 88.0374 59.9998L111.893 38.6563C112.107 38.4772 112.393 38.4772 112.608 38.6563L137.179 58.9613C137.393 59.1404 137.429 59.4985 137.25 59.7133C137.071 59.9282 136.714 59.964 136.499 59.785L112.286 39.7664L88.7527 60.7877C88.6454 60.8951 88.5023 60.9309 88.395 60.9309Z" fill="#212121"/>
<path d="M37.2861 195.689C37.1788 195.689 37.0715 195.653 36.9642 195.582C36.7138 195.403 36.6781 195.08 36.8569 194.83L78.1299 141.22C78.3087 140.969 78.6306 140.934 78.881 141.113C79.1313 141.292 79.1671 141.614 78.9883 141.865L37.6795 195.474C37.5722 195.617 37.4291 195.689 37.2861 195.689Z" fill="#212121"/>
<path d="M170.19 178.643C170.047 178.643 169.904 178.571 169.797 178.464L141.292 145.804C141.113 145.589 141.113 145.231 141.328 145.052C141.542 144.873 141.9 144.873 142.079 145.088L170.584 177.748C170.763 177.962 170.763 178.321 170.548 178.5C170.441 178.607 170.298 178.643 170.19 178.643Z" fill="#212121"/>
<path d="M164.825 127.003V79.0157C164.825 73.7514 169.081 69.454 174.375 69.454H77.2722C67.5441 69.454 59.6758 77.3325 59.6758 87.0732V127.397L112.251 166.897L164.825 127.003Z" fill="#FF5500"/>
<path d="M186.606 101.004H164.825V80.3407C164.825 74.3244 169.689 69.454 175.698 69.454C181.706 69.454 186.57 74.3244 186.57 80.3407L186.606 101.004Z" fill="#212121"/>
<path d="M186.607 101.541H164.826C164.539 101.541 164.289 101.29 164.289 101.004V80.3407C164.289 74.0379 169.403 68.9169 175.698 68.9169C181.993 68.9169 187.107 74.0379 187.107 80.3407V100.825C187.143 100.896 187.143 100.968 187.143 101.004C187.143 101.29 186.893 101.541 186.607 101.541ZM165.362 100.467H186.034V80.3407C186.034 74.6467 181.385 69.9912 175.698 69.9912C170.011 69.9912 165.362 74.6467 165.362 80.3407V100.467Z" fill="#212121"/>
<path d="M117.008 25.6925C116.972 25.6925 116.936 25.6925 116.9 25.6925C116.614 25.6209 116.435 25.3344 116.507 25.0479L121.943 0.409718C122.015 0.123227 122.301 -0.0558295 122.587 0.0157932C122.873 0.0874159 123.052 0.373907 122.98 0.660398L117.544 25.2986C117.473 25.5135 117.222 25.6925 117.008 25.6925Z" fill="#212121"/>
<path d="M125.269 31.1717C125.126 31.1717 124.947 31.1001 124.84 30.9926C124.661 30.7778 124.697 30.4196 124.912 30.2406L139.218 18.3512C139.432 18.1722 139.79 18.208 139.969 18.4228C140.148 18.6377 140.112 18.9958 139.897 19.1749L125.591 31.0642C125.484 31.1359 125.377 31.1717 125.269 31.1717Z" fill="#212121"/>
<path d="M130.991 38.6563C130.741 38.6563 130.526 38.4772 130.455 38.2265C130.419 37.94 130.598 37.6535 130.884 37.6177L141.363 35.7913C141.649 35.7555 141.935 35.9346 141.971 36.2211C142.007 36.5076 141.828 36.7941 141.542 36.8299L131.063 38.6563C131.027 38.6563 130.991 38.6563 130.991 38.6563Z" fill="#212121"/>
<path d="M112.25 167.398C112.143 167.398 112.036 167.362 111.928 167.291L31.3494 106.017C31.2063 105.91 31.1348 105.767 31.1348 105.588C31.1348 105.409 31.2063 105.265 31.3136 105.158L52.7369 87.4313C52.9515 87.2522 53.3092 87.2881 53.488 87.5029C53.6668 87.7178 53.6311 88.0759 53.4165 88.255L32.5296 105.552L112.214 166.18L191.899 105.552L186.499 101.075C186.284 100.896 186.248 100.538 186.427 100.323C186.606 100.109 186.964 100.073 187.178 100.252L193.115 105.158C193.258 105.265 193.33 105.409 193.294 105.588C193.294 105.767 193.223 105.91 193.079 106.017L112.572 167.291C112.465 167.362 112.357 167.398 112.25 167.398Z" fill="#212121"/>
<path d="M82.4229 113.932L82.5659 114.111C82.6017 114.111 82.6732 114.111 82.7805 114.147C82.6732 114.039 82.5659 113.968 82.4229 113.932Z" fill="#212121"/>
<path d="M82.7799 114.684C82.7084 114.684 82.6726 114.684 82.6011 114.648C82.5653 114.648 82.5654 114.648 82.5654 114.648C82.3865 114.648 82.2435 114.576 82.1362 114.433L81.9931 114.254C81.85 114.075 81.85 113.824 81.9573 113.645C82.0646 113.466 82.315 113.359 82.5296 113.43C82.7442 113.502 82.9588 113.609 83.1376 113.788C83.3164 113.968 83.3522 114.254 83.2091 114.433C83.1018 114.576 82.9588 114.684 82.7799 114.684Z" fill="#212121"/>
<path d="M96.7285 154.828V155.043L112.251 166.861L125.841 156.297L124.017 152.178C121.299 154.792 118.724 157.693 115.434 159.197C109.211 162.026 102.451 158.982 96.7285 154.828Z" fill="#212121"/>
<path d="M112.251 167.398C112.144 167.398 112.036 167.362 111.929 167.291L96.407 155.473C96.2639 155.365 96.1924 155.222 96.1924 155.043V154.828C96.1924 154.613 96.2997 154.434 96.4785 154.363C96.6573 154.255 96.8719 154.291 97.0508 154.399C104.204 159.591 110.177 161.024 115.219 158.696C117.866 157.478 120.119 155.258 122.265 153.109C122.73 152.644 123.195 152.214 123.624 151.749C123.767 151.641 123.946 151.569 124.089 151.605C124.268 151.641 124.411 151.749 124.483 151.928L126.307 156.046C126.414 156.261 126.342 156.547 126.128 156.69L112.537 167.255C112.466 167.362 112.358 167.398 112.251 167.398ZM102.952 159.126L112.251 166.216L125.198 156.153L123.839 153.109C123.553 153.36 123.302 153.647 123.016 153.897C120.799 156.117 118.474 158.374 115.649 159.663C111.929 161.382 107.673 161.167 102.952 159.126Z" fill="#212121"/>
<path d="M35.212 172.519L31.707 191.141V179.001L35.212 172.519Z" fill="#212121"/>
<path d="M31.7074 191.678H31.6716C31.3855 191.642 31.1709 191.427 31.1709 191.141V179.001C31.1709 178.929 31.2067 178.822 31.2424 178.75L34.7474 172.268C34.8905 172.018 35.1408 171.946 35.3912 172.018C35.6415 172.089 35.7846 172.376 35.7488 172.626L32.2439 191.248C32.1723 191.499 31.9577 191.678 31.7074 191.678ZM32.2439 179.144V185.411L34.0321 175.814L32.2439 179.144Z" fill="#212121"/>
<path d="M186.715 187.667L188.61 204.355C191.185 202.959 192.795 200.273 192.723 197.336L192.58 189.35" fill="#212121"/>
<path d="M188.61 204.892C188.538 204.892 188.431 204.857 188.359 204.821C188.216 204.749 188.109 204.57 188.073 204.391L186.178 187.703C186.142 187.417 186.357 187.13 186.643 187.094C186.929 187.058 187.215 187.273 187.251 187.56L189.039 203.424C191.042 202.028 192.222 199.771 192.186 197.3L192.043 189.315C192.043 189.028 192.258 188.777 192.58 188.777C192.866 188.777 193.116 189.028 193.116 189.315L193.259 197.3C193.331 200.416 191.65 203.281 188.86 204.785C188.753 204.857 188.681 204.892 188.61 204.892Z" fill="#212121"/>
<path d="M135.968 145.415L76.2039 135.746C66.0824 134.098 59.2154 124.572 60.8606 114.438C62.5058 104.303 72.0194 97.4274 82.1409 99.0747L141.905 108.744C152.026 110.391 158.893 119.917 157.248 130.052C155.603 140.186 146.089 147.062 135.968 145.415Z" fill="#10C900"/>
<path d="M107.319 130.911C107.176 130.875 107.033 130.875 106.89 130.839C104.565 130.338 102.598 128.87 101.418 126.793L92.9418 111.788C90.6886 107.777 92.0834 102.728 96.0891 100.471C100.095 98.2153 105.138 99.612 107.391 103.623L111.289 110.534L148.521 83.4969C152.24 80.811 157.426 81.6347 160.109 85.3591C162.791 89.0834 161.969 94.2761 158.249 96.9619L113.471 129.443C111.754 130.732 109.501 131.233 107.319 130.911Z" fill="#212121"/>
<path d="M108.607 131.556C108.142 131.556 107.712 131.52 107.248 131.448H107.212C107.176 131.448 107.104 131.448 107.069 131.412C106.961 131.412 106.89 131.377 106.783 131.377C104.351 130.839 102.24 129.3 100.989 127.079L92.5123 112.074C91.3678 109.997 91.0459 107.634 91.6897 105.342C92.3335 103.086 93.7998 101.188 95.8742 100.006C97.9486 98.8599 100.309 98.5376 102.598 99.1822C104.851 99.8268 106.747 101.295 107.927 103.372L111.539 109.747L148.27 83.0671C150.201 81.6704 152.526 81.1333 154.851 81.4914C157.176 81.8495 159.214 83.1387 160.609 85.0367C163.47 89.0118 162.576 94.5267 158.642 97.3916L113.864 129.873C112.326 130.947 110.502 131.556 108.607 131.556ZM107.391 130.374C109.465 130.66 111.575 130.159 113.113 129.013L157.891 96.5322C159.572 95.3146 160.681 93.524 161.003 91.4828C161.324 89.4415 160.824 87.3645 159.644 85.6813C158.427 83.9982 156.639 82.888 154.601 82.5657C152.562 82.2434 150.488 82.7448 148.807 83.9266L111.575 110.964C111.468 111.072 111.289 111.072 111.146 111.072C111.003 111.036 110.86 110.928 110.788 110.821L106.89 103.873C105.888 102.047 104.208 100.758 102.205 100.185C100.202 99.6477 98.1274 99.8984 96.3034 100.901C92.5838 103.014 91.2605 107.741 93.3707 111.501L101.847 126.506C102.956 128.44 104.816 129.837 106.961 130.302C107.033 130.302 107.069 130.338 107.14 130.338C107.248 130.338 107.319 130.374 107.391 130.374Z" fill="#212121"/>
<path d="M102.67 127.903C102.527 127.867 102.384 127.867 102.241 127.831C99.916 127.33 97.9489 125.862 96.7687 123.785L88.2923 108.78C86.0391 104.769 87.434 99.7194 91.4397 97.4633C95.4454 95.2072 100.488 96.6038 102.741 100.615L106.64 107.526L143.871 80.4887C147.591 77.8028 152.777 78.6265 155.459 82.3509C158.142 86.0753 157.319 91.2679 153.6 93.9537L108.822 126.435C107.105 127.724 104.852 128.261 102.67 127.903Z" fill="white"/>
<path d="M103.994 128.548C103.529 128.548 103.028 128.512 102.563 128.44H102.527C102.491 128.44 102.42 128.44 102.384 128.404C102.277 128.404 102.205 128.368 102.098 128.368C99.666 127.831 97.5559 126.291 96.3041 124.071L87.8277 109.066C86.6832 106.989 86.3614 104.626 87.0051 102.334C87.6489 100.078 89.1153 98.1795 91.1896 96.9977C93.264 95.8518 95.6245 95.5295 97.9135 96.1741C100.167 96.8187 102.062 98.2869 103.243 100.364L106.855 106.738L143.586 80.059C147.556 77.194 153.063 78.0893 155.925 82.0286C158.786 86.0036 157.892 91.5186 153.958 94.3835L109.18 126.864C107.677 127.975 105.853 128.548 103.994 128.548ZM102.742 127.366C104.78 127.688 106.855 127.187 108.464 126.005L153.242 93.524C156.711 91.0172 157.498 86.1469 154.995 82.6732C152.491 79.1995 147.627 78.4116 144.158 80.9184L106.926 107.956C106.819 108.063 106.64 108.063 106.497 108.063C106.354 108.028 106.211 107.92 106.139 107.813L102.241 100.865C101.24 99.039 99.5587 97.7498 97.5559 97.1768C95.553 96.6396 93.4786 96.8903 91.6546 97.893C89.8306 98.8957 88.543 100.579 87.9708 102.584C87.4343 104.59 87.6846 106.667 88.6861 108.493L97.1624 123.498C98.2711 125.432 100.131 126.829 102.277 127.294C102.348 127.294 102.384 127.33 102.456 127.33C102.599 127.33 102.67 127.366 102.742 127.366Z" fill="#212121"/>
</svg>
